<svg width="427" height="346" viewBox="0 0 427 346" fill="none" xmlns="http://www.w3.org/2000/svg">
<path d="M106 70H56C49.1 70 43.5 64.4 43.5 57.5C43.5 42.3 55.8 30 71 30H91C106.2 30 118.5 42.3 118.5 57.5C118.5 64.4 112.9 70 106 70ZM58.8 55H103.3C102.1 49.3 97.1 45 91.1 45H71.1C65 45 59.9 49.3 58.8 55Z" fill="#F15454"/>
<path d="M371 70H321C314.1 70 308.5 64.4 308.5 57.5C308.5 42.3 320.8 30 336 30H356C371.2 30 383.5 42.3 383.5 57.5C383.5 64.4 377.9 70 371 70ZM323.8 55H368.3C367.1 49.3 362.1 45 356.1 45H336.1C330 45 324.9 49.3 323.8 55Z" fill="#F15454"/>
<path d="M373 346H350C345.9 346 342.5 342.6 342.5 338.5C342.5 334.4 345.9 331 350 331H373C394.5 331 412 313.5 412 292V109C412 87.5 394.5 70 373 70H54C32.5 70 15 87.5 15 109V292C15 313.5 32.5 331 54 331H318.5C322.6 331 326 334.4 326 338.5C326 342.6 322.6 346 318.5 346H54C24.2 346 0 321.8 0 292V109C0 79.2 24.2 55 54 55H373C402.8 55 427 79.2 427 109V292C427 321.8 402.8 346 373 346Z" fill="#F15454"/>
<path d="M240.4 274H186.7C182.6 274 179.2 270.6 179.2 266.5V233.5H146.2C142.1 233.5 138.7 230.1 138.7 226V172.3C138.7 168.2 142.1 164.8 146.2 164.8H179.2V131.8C179.2 127.7 182.6 124.3 186.7 124.3H240.4C244.5 124.3 247.9 127.7 247.9 131.8V164.8H280.9C285 164.8 288.4 168.2 288.4 172.3V226C288.4 230.1 285 233.5 280.9 233.5H247.9V266.5C247.9 270.6 244.5 274 240.4 274ZM194.1 259H232.8V226C232.8 221.9 236.2 218.5 240.3 218.5H273.3V179.8H240.3C236.2 179.8 232.8 176.4 232.8 172.3V139.3H194.1V172.3C194.1 176.4 190.7 179.8 186.6 179.8H153.6V218.5H186.6C190.7 218.5 194.1 221.9 194.1 226V259V259Z" fill="#F15454"/>
<path d="M294 70H251V47C251 44.2 248.8 42 246 42H179C176.2 42 174 44.2 174 47V70H133V39.5C133 17.7 150.7 0 172.5 0H254.5C276.3 0 294 17.7 294 39.5V70ZM266 55H279V39.5C279 26 268 15 254.5 15H172.5C159 15 148 26 148 39.5V55H159V47C159 36 168 27 179 27H246C257 27 266 36 266 47V55Z" fill="#F15454"/>
</svg>
