<svg width="436" height="175" viewBox="0 0 436 175" fill="none" xmlns="http://www.w3.org/2000/svg">
<path d="M206.72 133.2C201.6 133.2 196.8 132.8 192.32 132C187.92 131.28 184.12 130.2 180.92 128.76V112.32C184.44 113.84 188.32 115.08 192.56 116.04C196.88 117 200.96 117.48 204.8 117.48C209.6 117.48 213.16 117.04 215.48 116.16C217.88 115.28 219.08 113.36 219.08 110.4C219.08 108.4 218.48 106.8 217.28 105.6C216.16 104.4 214.28 103.36 211.64 102.48C209.08 101.52 205.56 100.4 201.08 99.12C195.8 97.52 191.6 95.76 188.48 93.84C185.36 91.84 183.12 89.44 181.76 86.64C180.4 83.84 179.72 80.4 179.72 76.32C179.72 68.96 182.36 63.32 187.64 59.4C192.92 55.48 200.72 53.52 211.04 53.52C215.52 53.52 219.88 53.88 224.12 54.6C228.36 55.24 231.8 56 234.44 56.88V73.44C231 72.08 227.52 71.08 224 70.44C220.56 69.8 217.2 69.48 213.92 69.48C209.6 69.48 206.08 69.88 203.36 70.68C200.72 71.48 199.4 73.32 199.4 76.2C199.4 77.88 199.88 79.24 200.84 80.28C201.8 81.24 203.44 82.12 205.76 82.92C208.16 83.72 211.4 84.68 215.48 85.8C221.8 87.48 226.64 89.52 230 91.92C233.36 94.24 235.68 96.96 236.96 100.08C238.24 103.12 238.88 106.56 238.88 110.4C238.88 117.2 236.24 122.72 230.96 126.96C225.68 131.12 217.6 133.2 206.72 133.2ZM264.685 133.2C261.085 133.2 257.725 132.56 254.605 131.28C251.565 130 249.125 128.04 247.285 125.4C245.445 122.68 244.525 119.32 244.525 115.32C244.525 109.48 246.485 104.92 250.405 101.64C254.405 98.28 260.365 96.6 268.285 96.6H284.125V95.28C284.125 92.4 283.165 90.36 281.245 89.16C279.325 87.88 275.725 87.24 270.445 87.24C263.965 87.24 257.605 88.24 251.365 90.24V77.76C254.165 76.64 257.565 75.72 261.565 75C265.645 74.28 269.925 73.92 274.405 73.92C283.205 73.92 290.085 75.72 295.045 79.32C300.085 82.92 302.605 88.64 302.605 96.48V132H285.685L284.725 127.2C282.645 129.12 279.965 130.6 276.685 131.64C273.485 132.68 269.485 133.2 264.685 133.2ZM270.805 121.32C273.845 121.32 276.485 120.8 278.725 119.76C280.965 118.72 282.765 117.4 284.125 115.8V107.76H270.445C264.765 107.76 261.925 110.04 261.925 114.6C261.925 116.68 262.645 118.32 264.085 119.52C265.525 120.72 267.765 121.32 270.805 121.32ZM314.19 132V75.12H332.55L333.15 80.4C335.63 78.88 338.71 77.52 342.39 76.32C346.07 75.04 349.75 74.24 353.43 73.92V88.44C351.35 88.68 349.03 89.08 346.47 89.64C343.99 90.12 341.59 90.72 339.27 91.44C337.03 92.16 335.11 92.92 333.51 93.72V132H314.19ZM382.25 133.2C376.73 133.2 372.01 132.32 368.09 130.56C364.17 128.8 361.17 125.92 359.09 121.92C357.01 117.84 355.97 112.4 355.97 105.6C355.97 98.72 357.17 92.96 359.57 88.32C361.97 83.6 365.25 80.04 369.41 77.64C373.65 75.16 378.49 73.92 383.93 73.92C386.89 73.92 389.53 74.24 391.85 74.88C394.25 75.52 396.49 76.48 398.57 77.76V51.12H417.89V132H401.21L400.13 127.2C397.81 129.2 395.21 130.72 392.33 131.76C389.45 132.72 386.09 133.2 382.25 133.2ZM387.77 119.16C392.01 119.16 395.61 117.72 398.57 114.84V91.8C395.85 89.32 392.37 88.08 388.13 88.08C384.05 88.08 380.93 89.64 378.77 92.76C376.69 95.8 375.65 100.12 375.65 105.72C375.65 111.16 376.65 114.76 378.65 116.52C380.73 118.28 383.77 119.16 387.77 119.16Z" fill="#F15454"/>
<g filter="url(#filter0_d_3_21)">
<path d="M81.3553 47.7648L76 53.4414L70.6447 47.7648C55.8562 32.0886 31.8797 32.0886 17.0913 47.7648C2.30289 63.441 2.30289 88.8635 17.0913 104.548L22.4467 110.225L76 167L129.553 110.216L134.909 104.54C149.697 88.8635 149.697 63.441 134.909 47.7561C120.12 32.0799 96.1438 32.0799 81.3553 47.7648Z" fill="#F15454"/>
</g>
<path d="M1 98.1399H61.48L71.7467 77.9948L87.9867 125L104.6 53L116.92 98.1399H155" stroke="#EFE7E7" stroke-width="5"/>
<path d="M0 95H10.093L14 101H0V95Z" fill="#F15454"/>
<circle cx="151.5" cy="98.5" r="5.5" fill="#F15454"/>
<defs>
<filter id="filter0_d_3_21" x="6" y="36" width="159" height="139" filterUnits="userSpaceOnUse" color-interpolation-filters="sRGB">
<feFlood flood-opacity="0" result="BackgroundImageFix"/>
<feColorMatrix in="SourceAlpha" type="matrix" values="0 0 0 0 0 0 0 0 0 0 0 0 0 0 0 0 0 0 127 0" result="hardAlpha"/>
<feOffset dx="15" dy="4"/>
<feGaussianBlur stdDeviation="2"/>
<feComposite in2="hardAlpha" operator="out"/>
<feColorMatrix type="matrix" values="0 0 0 0 0.103628 0 0 0 0 0.529167 0 0 0 0 0.503634 0 0 0 0.25 0"/>
<feBlend mode="normal" in2="BackgroundImageFix" result="effect1_dropShadow_3_21"/>
<feBlend mode="normal" in="SourceGraphic" in2="effect1_dropShadow_3_21" result="shape"/>
</filter>
</defs>
</svg>
