<svg width="28" height="28" viewBox="0 0 28 28" fill="none" xmlns="http://www.w3.org/2000/svg">
<path d="M27 8H20V1C20 0.4 19.6 0 19 0H9C8.4 0 8 0.4 8 1V8H1C0.4 8 0 8.4 0 9V19C0 19.6 0.4 20 1 20H8V27C8 27.6 8.4 28 9 28H19C19.6 28 20 27.6 20 27V20H27C27.6 20 28 19.6 28 19V9C28 8.4 27.6 8 27 8ZM22 15H15V22C15 22.6 14.6 23 14 23C13.4 23 13 22.6 13 22V15H6C5.4 15 5 14.6 5 14C5 13.4 5.4 13 6 13H13V6C13 5.4 13.4 5 14 5C14.6 5 15 5.4 15 6V13H22C22.6 13 23 13.4 23 14C23 14.6 22.6 15 22 15Z" fill="#F15454"/>
</svg>
