<svg width="423" height="478" viewBox="0 0 423 478" fill="none" xmlns="http://www.w3.org/2000/svg">
<path d="M218.308 329.065L252.248 363.004V249.867L218.308 215.926V329.065Z" fill="#F15454"/>
<path d="M411.104 408.723L276.246 273.865V387.002L354.536 465.289C362.038 472.791 372.212 477.005 382.821 477.006C393.429 477.006 403.604 472.792 411.106 465.291L411.105 465.289C414.819 461.575 417.765 457.165 419.775 452.312C421.785 447.46 422.82 442.258 422.82 437.006C422.819 431.753 421.785 426.552 419.775 421.699C417.764 416.846 414.818 412.437 411.104 408.723Z" fill="#F15454"/>
<path d="M131.551 226.404C136.305 241.585 144.657 255.393 155.897 266.65L194.311 305.066V191.928L180.168 177.787L131.551 226.404Z" fill="#F15454"/>
<path d="M2.38206 0C-6.92354 59.1543 11.0121 121.768 56.598 167.354C73.7283 184.485 93.9465 198.219 116.185 207.83L163.198 160.816L2.38206 0Z" fill="#F15454"/>
</svg>
