<svg width="466" height="468" viewBox="0 0 466 468" fill="none" xmlns="http://www.w3.org/2000/svg">
<path d="M466 233.9C466 233.7 466 233.4 466 233.2C466 231.6 466 230 465.9 228.5C465.9 227.6 465.8 226.7 465.8 225.7C465.8 224.8 465.7 223.9 465.7 223C465.6 221.9 465.6 220.8 465.5 219.7C465.5 219 465.4 218.3 465.4 217.6C465.3 216.4 465.2 215.2 465.1 214C465.1 213.5 465 212.9 465 212.4C464.9 211.1 464.7 209.8 464.6 208.4C464.6 208.1 464.5 207.7 464.5 207.4C451.3 91.2 352.7 0.900024 233 0.900024C113.3 0.900024 14.7 91.2 1.5 207.5C1.5 207.8 1.4 208.2 1.4 208.5C1.3 209.8 1.1 211.1 1 212.5C0.9 213 0.9 213.6 0.9 214.1C0.8 215.3 0.7 216.5 0.6 217.7C0.6 218.4 0.5 219.1 0.5 219.8C0.4 220.9 0.399999 222 0.299999 223.1C0.299999 224 0.200001 224.9 0.200001 225.8C0.200001 226.7 0.1 227.6 0.1 228.6C0.1 230.2 0 231.8 0 233.3C0 233.5 0 233.8 0 234C0 234 0 234 0 234.1C0 234.2 0 234.1 0 234.2C0 234.4 0 234.7 0 234.9C0 236.5 3.7998e-07 238.1 0.1 239.6C0.1 240.5 0.200001 241.4 0.200001 242.4C0.200001 243.3 0.299999 244.2 0.299999 245.1C0.399999 246.2 0.4 247.3 0.5 248.4C0.5 249.1 0.6 249.8 0.6 250.5C0.7 251.7 0.8 252.9 0.9 254.1C0.9 254.6 1 255.2 1 255.7C1.1 257 1.3 258.3 1.4 259.7C1.4 260 1.5 260.4 1.5 260.7C14.7 376.8 113.3 467.1 233 467.1C352.7 467.1 451.3 376.8 464.5 260.6C464.5 260.3 464.6 259.9 464.6 259.6C464.7 258.3 464.9 257 465 255.6C465.1 255.1 465.1 254.5 465.1 254C465.2 252.8 465.3 251.6 465.4 250.4C465.4 249.7 465.5 249 465.5 248.3C465.6 247.2 465.6 246.1 465.7 245C465.7 244.1 465.8 243.2 465.8 242.3C465.8 241.4 465.9 240.5 465.9 239.5C465.9 237.9 466 236.3 466 234.8C466 234.6 466 234.3 466 234.1C466 234 466 234 466 233.9C466 234 466 234 466 233.9Z" fill="#2BB673"/>
<path d="M190.6 322.2L346.7 166.2" stroke="white" stroke-width="30" stroke-miterlimit="10"/>
<path d="M210.8 323.2L131.7 244.1" stroke="white" stroke-width="30" stroke-miterlimit="10"/>
</svg>
